# xmcd
#
# Track frame offsets: 
#        150
#        16288
#        32864
#        48845
#        68074
#        84291
#        100621
#        125357
#        140995
#        157059
#        176287
#        191769
#
# Disc length: 2735 seconds
#
# Revision: 0
# Processed by: cddbd v1.5.2PL0 Copyright (c) Steve Scherf et al.
# Submitted via: ExactAudioCopy v0.99pb3
#
DISCID=9a0aad0c
DTITLE=The Bamboos - 4
DYEAR=2010
DGENRE=Funk
TTITLE0=On The Sly
TTITLE1=Turn It Up
TTITLE2=You Ain't No Good
TTITLE3=Red Triangle
TTITLE4=Kings Cross
TTITLE5=The Ghost
TTITLE6=Up On The Hill
TTITLE7=Never Be The Girl
TTITLE8=Like Tears In The Rain
TTITLE9=Keep Me In Mind
TTITLE10=Got To Get It Over
TTITLE11=Typhoon
EXTD=
EXTT0=
EXTT1=
EXTT2=
EXTT3=
EXTT4=
EXTT5=
EXTT6=
EXTT7=
EXTT8=
EXTT9=
EXTT10=
EXTT11=
PLAYORDER=
